<svg xmlns="http://www.w3.org/2000/svg" width="400" height="400" viewBox="0 0 400 400"
  preserveAspectRatio="xMidYMid meet">
  <path fill="#545454"
    d="M158 116L116 74L158 32L200 74ZM200 74L242 32L284 74L242 116ZM242 284L284 326L242 368L200 326ZM200 326L158 368L116 326L158 284ZM74 200L32 158L74 116L116 158ZM284 158L326 116L368 158L326 200ZM326 200L368 242L326 284L284 242ZM116 242L74 284L32 242L74 200Z">
  </path>
  <path fill="#e8bae3" d="M32 116L32 32L74 32ZM284 32L368 32L368 74ZM368 284L368 368L326 368ZM116 368L32 368L32 326Z">
  </path>
  <path fill="#d175c8"
    d="M200 116L200 183L158 116ZM284 200L217 200L284 158ZM200 284L200 217L242 284ZM116 200L183 200L116 242Z"></path>
</svg>
